<svg version="1.1" id="Capa_1" xmlns="http://www.w3.org/2000/svg" xmlns:xlink="http://www.w3.org/1999/xlink" x="0px" y="0px" viewBox="0 0 16 16" style="enable-background:new 0 0 237.832 237.832;" xml:space="preserve" width="16" height="16"><path d="M15.404 2.282H0.596C0.267 2.282 0 2.548 0 2.877V13.123c0 0.329 0.267 0.596 0.596 0.596h14.809a0.596 0.596 0 0 0 0.596 -0.596V2.877c0 -0.329 -0.267 -0.596 -0.596 -0.596m-0.535 9.975c0 0.273 -0.226 0.495 -0.505 0.495h-0.83V4.937l-5.159 3.35c-0.113 0.074 -0.244 0.11 -0.374 0.11s-0.261 -0.037 -0.374 -0.11l-5.159 -3.35V12.751h-0.83c-0.279 0 -0.505 -0.222 -0.505 -0.495V3.744c0 -0.273 0.226 -0.495 0.505 -0.495h0.685l5.68 3.687 5.68 -3.687h0.685c0.279 0 0.505 0.222 0.505 0.495v8.513z"/></svg>